C:/Users/Mishalia/Desktop/ffmpeg.exe -hide_banner -y -y -r 24 -i C:/Users/Mishalia/Documents/GitHub/6-10-16-20M/Vr/frame%04d.png -crf 23 -preset medium -profile:v baseline -pix_fmt yuv420p C:/Users/Mishalia/Documents/GitHub/6-10-16-20M/Vr/scene2 3rd.mp4
=====================================================
Input #0, image2, from 'C:/Users/Mishalia/Documents/GitHub/6-10-16-20M/Vr/frame%04d.png':
  Duration: 00:00:01.76, start: 0.000000, bitrate: N/A
  Stream #0:0: Video: png, rgba(pc), 1920x1080 [SAR 11811:11811 DAR 16:9], 25 fps, 25 tbr, 25 tbn
Stream mapping:
  Stream #0:0 -> #0:0 (png (native) -> h264 (libx264))
Press [q] to stop, [?] for help
[libx264 @ 00000200880ea4c0] using SAR=1/1
[libx264 @ 00000200880ea4c0] using cpu capabilities: MMX2 SSE2Fast SSSE3 SSE4.2 AVX FMA3 BMI2 AVX2 AVX512
[libx264 @ 00000200880ea4c0] profile Constrained Baseline, level 4.0, 4:2:0, 8-bit
[libx264 @ 00000200880ea4c0] 264 - core 164 r3099 e067ab0 - H.264/MPEG-4 AVC codec - Copyleft 2003-2022 - http://www.videolan.org/x264.html - options: cabac=0 ref=3 deblock=1:0:0 analyse=0x1:0x111 me=hex subme=7 psy=1 psy_rd=1.00:0.00 mixed_ref=1 me_range=16 chroma_me=1 trellis=1 8x8dct=0 cqm=0 deadzone=21,11 fast_pskip=1 chroma_qp_offset=-2 threads=24 lookahead_threads=4 sliced_threads=0 nr=0 decimate=1 interlaced=0 bluray_compat=0 constrained_intra=0 bframes=0 weightp=0 keyint=250 keyint_min=24 scenecut=40 intra_refresh=0 rc_lookahead=40 rc=crf mbtree=1 crf=23.0 qcomp=0.60 qpmin=0 qpmax=69 qpstep=4 ip_ratio=1.40 aq=1:1.00
Output #0, mp4, to 'C:/Users/Mishalia/Documents/GitHub/6-10-16-20M/Vr/scene2 3rd.mp4':
  Metadata:
    encoder         : Lavf59.27.100
  Stream #0:0: Video: h264 (avc1 / 0x31637661), yuv420p(tv, progressive), 1920x1080 [SAR 1:1 DAR 16:9], q=2-31, 24 fps, 12288 tbn
    Metadata:
      encoder         : Lavc59.37.100 libx264
    Side data:
      cpb: bitrate max/min/avg: 0/0/0 buffer size: 0 vbv_delay: N/A
frame=    1 fps=0.0 q=0.0 size=       0kB time=00:00:00.00 bitrate=N/A speed=   0x    frame=   44 fps=0.0 q=-1.0 Lsize=      55kB time=00:00:01.79 bitrate= 251.4kbits/s speed=4.11x    
video:54kB audio:0kB subtitle:0kB other streams:0kB global headers:0kB muxing overhead: 1.867333%
[libx264 @ 00000200880ea4c0] frame I:1     Avg QP:10.89  size: 35304
[libx264 @ 00000200880ea4c0] frame P:43    Avg QP:13.11  size:   450
[libx264 @ 00000200880ea4c0] mb I  I16..4: 95.6%  0.0%  4.4%
[libx264 @ 00000200880ea4c0] mb P  I16..4:  0.1%  0.0%  0.0%  P16..4:  0.2%  0.1%  0.0%  0.0%  0.0%    skip:99.7%
[libx264 @ 00000200880ea4c0] coded y,uvDC,uvAC intra: 3.5% 5.6% 5.2% inter: 0.1% 0.2% 0.1%
[libx264 @ 00000200880ea4c0] i16 v,h,dc,p: 98%  1%  2%  0%
[libx264 @ 00000200880ea4c0] i4 v,h,dc,ddl,ddr,vr,hd,vl,hu: 31% 16% 21%  7%  5%  6%  4%  6%  5%
[libx264 @ 00000200880ea4c0] i8c dc,h,v,p: 95%  2%  2%  0%
[libx264 @ 00000200880ea4c0] ref P L0: 89.8%  8.2%  2.0%
[libx264 @ 00000200880ea4c0] kb/s:238.42
